<mxfile host="Electron" agent="Mozilla/5.0 (Windows NT 10.0; Win64; x64) AppleWebKit/537.36 (KHTML, like Gecko) draw.io/24.7.17 Chrome/128.0.6613.36 Electron/32.0.1 Safari/537.36" version="24.7.17">
  <diagram name="Página-1" id="99zE-fpGwMQE79Uss6QU">
    <mxGraphModel dx="1105" dy="654" grid="1" gridSize="10" guides="1" tooltips="1" connect="1" arrows="1" fold="1" page="1" pageScale="1" pageWidth="1169" pageHeight="827" math="0" shadow="0">
      <root>
        <mxCell id="0" />
        <mxCell id="1" parent="0" />
        <mxCell id="NxGwlw9UBmdGhxkE0W0p-1" value="Información general" style="rounded=1;whiteSpace=wrap;html=1;" parent="1" vertex="1">
          <mxGeometry x="732" y="344" width="120" height="60" as="geometry" />
        </mxCell>
        <mxCell id="NxGwlw9UBmdGhxkE0W0p-7" style="edgeStyle=orthogonalEdgeStyle;rounded=0;orthogonalLoop=1;jettySize=auto;html=1;exitX=0.5;exitY=1;exitDx=0;exitDy=0;entryX=0;entryY=0.25;entryDx=0;entryDy=0;" parent="1" source="NxGwlw9UBmdGhxkE0W0p-2" target="NxGwlw9UBmdGhxkE0W0p-1" edge="1">
          <mxGeometry relative="1" as="geometry" />
        </mxCell>
        <mxCell id="NxGwlw9UBmdGhxkE0W0p-2" value="&lt;u&gt;cif&lt;/u&gt;" style="ellipse;whiteSpace=wrap;html=1;" parent="1" vertex="1">
          <mxGeometry x="632" y="244" width="80" height="40" as="geometry" />
        </mxCell>
        <mxCell id="NxGwlw9UBmdGhxkE0W0p-8" style="edgeStyle=orthogonalEdgeStyle;rounded=0;orthogonalLoop=1;jettySize=auto;html=1;exitX=0.5;exitY=1;exitDx=0;exitDy=0;entryX=0.25;entryY=0;entryDx=0;entryDy=0;" parent="1" source="NxGwlw9UBmdGhxkE0W0p-3" target="NxGwlw9UBmdGhxkE0W0p-1" edge="1">
          <mxGeometry relative="1" as="geometry" />
        </mxCell>
        <mxCell id="NxGwlw9UBmdGhxkE0W0p-3" value="&lt;font style=&quot;font-size: 10px;&quot;&gt;nombreEmpresa&lt;/font&gt;" style="ellipse;whiteSpace=wrap;html=1;" parent="1" vertex="1">
          <mxGeometry x="712" y="244" width="80" height="40" as="geometry" />
        </mxCell>
        <mxCell id="NxGwlw9UBmdGhxkE0W0p-9" style="edgeStyle=orthogonalEdgeStyle;rounded=0;orthogonalLoop=1;jettySize=auto;html=1;exitX=0.5;exitY=1;exitDx=0;exitDy=0;entryX=0.75;entryY=0;entryDx=0;entryDy=0;" parent="1" source="NxGwlw9UBmdGhxkE0W0p-4" target="NxGwlw9UBmdGhxkE0W0p-1" edge="1">
          <mxGeometry relative="1" as="geometry" />
        </mxCell>
        <mxCell id="NxGwlw9UBmdGhxkE0W0p-4" value="direccion" style="ellipse;whiteSpace=wrap;html=1;" parent="1" vertex="1">
          <mxGeometry x="792" y="244" width="80" height="40" as="geometry" />
        </mxCell>
        <mxCell id="NxGwlw9UBmdGhxkE0W0p-10" style="edgeStyle=orthogonalEdgeStyle;rounded=0;orthogonalLoop=1;jettySize=auto;html=1;exitX=0.5;exitY=1;exitDx=0;exitDy=0;entryX=1;entryY=0.25;entryDx=0;entryDy=0;" parent="1" source="NxGwlw9UBmdGhxkE0W0p-5" target="NxGwlw9UBmdGhxkE0W0p-1" edge="1">
          <mxGeometry relative="1" as="geometry" />
        </mxCell>
        <mxCell id="NxGwlw9UBmdGhxkE0W0p-5" value="telefono" style="ellipse;whiteSpace=wrap;html=1;" parent="1" vertex="1">
          <mxGeometry x="872" y="244" width="80" height="40" as="geometry" />
        </mxCell>
        <mxCell id="NxGwlw9UBmdGhxkE0W0p-64" style="edgeStyle=orthogonalEdgeStyle;rounded=0;orthogonalLoop=1;jettySize=auto;html=1;exitX=0;exitY=0.5;exitDx=0;exitDy=0;entryX=1;entryY=0.5;entryDx=0;entryDy=0;" parent="1" source="NxGwlw9UBmdGhxkE0W0p-13" target="NxGwlw9UBmdGhxkE0W0p-50" edge="1">
          <mxGeometry relative="1" as="geometry" />
        </mxCell>
        <mxCell id="NxGwlw9UBmdGhxkE0W0p-13" value="Personas" style="rounded=1;whiteSpace=wrap;html=1;" parent="1" vertex="1">
          <mxGeometry x="732" y="519" width="120" height="60" as="geometry" />
        </mxCell>
        <mxCell id="NxGwlw9UBmdGhxkE0W0p-26" style="edgeStyle=orthogonalEdgeStyle;rounded=0;orthogonalLoop=1;jettySize=auto;html=1;exitX=0.5;exitY=1;exitDx=0;exitDy=0;entryX=0;entryY=0;entryDx=0;entryDy=0;" parent="1" source="NxGwlw9UBmdGhxkE0W0p-15" target="NxGwlw9UBmdGhxkE0W0p-4" edge="1">
          <mxGeometry relative="1" as="geometry" />
        </mxCell>
        <mxCell id="NxGwlw9UBmdGhxkE0W0p-15" value="&lt;font style=&quot;font-size: 6px;&quot;&gt;cp&lt;/font&gt;" style="ellipse;whiteSpace=wrap;html=1;" parent="1" vertex="1">
          <mxGeometry x="752" y="194" width="40" height="20" as="geometry" />
        </mxCell>
        <mxCell id="NxGwlw9UBmdGhxkE0W0p-22" style="edgeStyle=orthogonalEdgeStyle;rounded=0;orthogonalLoop=1;jettySize=auto;html=1;exitX=0.5;exitY=1;exitDx=0;exitDy=0;entryX=0.5;entryY=0;entryDx=0;entryDy=0;" parent="1" source="NxGwlw9UBmdGhxkE0W0p-16" target="NxGwlw9UBmdGhxkE0W0p-4" edge="1">
          <mxGeometry relative="1" as="geometry" />
        </mxCell>
        <mxCell id="NxGwlw9UBmdGhxkE0W0p-16" value="&lt;font style=&quot;font-size: 6px;&quot;&gt;ciudad&lt;/font&gt;" style="ellipse;whiteSpace=wrap;html=1;" parent="1" vertex="1">
          <mxGeometry x="792" y="174" width="40" height="20" as="geometry" />
        </mxCell>
        <mxCell id="NxGwlw9UBmdGhxkE0W0p-25" style="edgeStyle=orthogonalEdgeStyle;rounded=0;orthogonalLoop=1;jettySize=auto;html=1;exitX=0.5;exitY=1;exitDx=0;exitDy=0;entryX=0.5;entryY=0;entryDx=0;entryDy=0;" parent="1" source="NxGwlw9UBmdGhxkE0W0p-17" target="NxGwlw9UBmdGhxkE0W0p-4" edge="1">
          <mxGeometry relative="1" as="geometry" />
        </mxCell>
        <mxCell id="NxGwlw9UBmdGhxkE0W0p-17" value="&lt;font style=&quot;font-size: 6px;&quot;&gt;calle&lt;/font&gt;" style="ellipse;whiteSpace=wrap;html=1;" parent="1" vertex="1">
          <mxGeometry x="837" y="174" width="40" height="20" as="geometry" />
        </mxCell>
        <mxCell id="NxGwlw9UBmdGhxkE0W0p-23" style="edgeStyle=orthogonalEdgeStyle;rounded=0;orthogonalLoop=1;jettySize=auto;html=1;exitX=0.5;exitY=1;exitDx=0;exitDy=0;entryX=1;entryY=0;entryDx=0;entryDy=0;" parent="1" source="NxGwlw9UBmdGhxkE0W0p-18" target="NxGwlw9UBmdGhxkE0W0p-4" edge="1">
          <mxGeometry relative="1" as="geometry" />
        </mxCell>
        <mxCell id="NxGwlw9UBmdGhxkE0W0p-18" value="&lt;font style=&quot;font-size: 6px;&quot;&gt;numero&lt;/font&gt;" style="ellipse;whiteSpace=wrap;html=1;" parent="1" vertex="1">
          <mxGeometry x="877" y="194" width="40" height="20" as="geometry" />
        </mxCell>
        <mxCell id="7605KGGbJHUWiCEuBsS4-6" style="edgeStyle=orthogonalEdgeStyle;rounded=0;orthogonalLoop=1;jettySize=auto;html=1;exitX=0;exitY=0.5;exitDx=0;exitDy=0;entryX=1;entryY=0.25;entryDx=0;entryDy=0;" parent="1" source="NxGwlw9UBmdGhxkE0W0p-27" target="NxGwlw9UBmdGhxkE0W0p-13" edge="1">
          <mxGeometry relative="1" as="geometry" />
        </mxCell>
        <mxCell id="NxGwlw9UBmdGhxkE0W0p-27" value="dni" style="ellipse;whiteSpace=wrap;html=1;" parent="1" vertex="1">
          <mxGeometry x="897" y="489" width="80" height="40" as="geometry" />
        </mxCell>
        <mxCell id="7605KGGbJHUWiCEuBsS4-5" style="edgeStyle=orthogonalEdgeStyle;rounded=0;orthogonalLoop=1;jettySize=auto;html=1;exitX=0;exitY=0.5;exitDx=0;exitDy=0;entryX=1;entryY=0.5;entryDx=0;entryDy=0;" parent="1" source="NxGwlw9UBmdGhxkE0W0p-28" target="NxGwlw9UBmdGhxkE0W0p-13" edge="1">
          <mxGeometry relative="1" as="geometry" />
        </mxCell>
        <mxCell id="NxGwlw9UBmdGhxkE0W0p-28" value="&lt;font style=&quot;font-size: 10px;&quot;&gt;nombreCompleto&lt;/font&gt;" style="ellipse;whiteSpace=wrap;html=1;" parent="1" vertex="1">
          <mxGeometry x="897" y="529" width="80" height="40" as="geometry" />
        </mxCell>
        <mxCell id="7605KGGbJHUWiCEuBsS4-7" style="edgeStyle=orthogonalEdgeStyle;rounded=0;orthogonalLoop=1;jettySize=auto;html=1;exitX=0;exitY=0.5;exitDx=0;exitDy=0;entryX=1;entryY=0.75;entryDx=0;entryDy=0;" parent="1" source="NxGwlw9UBmdGhxkE0W0p-31" target="NxGwlw9UBmdGhxkE0W0p-13" edge="1">
          <mxGeometry relative="1" as="geometry" />
        </mxCell>
        <mxCell id="NxGwlw9UBmdGhxkE0W0p-31" value="" style="ellipse;whiteSpace=wrap;html=1;" parent="1" vertex="1">
          <mxGeometry x="897" y="569" width="80" height="40" as="geometry" />
        </mxCell>
        <mxCell id="NxGwlw9UBmdGhxkE0W0p-32" value="telefono" style="ellipse;whiteSpace=wrap;html=1;direction=west;" parent="1" vertex="1">
          <mxGeometry x="902" y="574" width="70" height="30" as="geometry" />
        </mxCell>
        <mxCell id="7605KGGbJHUWiCEuBsS4-8" style="edgeStyle=orthogonalEdgeStyle;rounded=0;orthogonalLoop=1;jettySize=auto;html=1;exitX=0;exitY=0.5;exitDx=0;exitDy=0;entryX=0.75;entryY=1;entryDx=0;entryDy=0;" parent="1" source="NxGwlw9UBmdGhxkE0W0p-33" target="NxGwlw9UBmdGhxkE0W0p-13" edge="1">
          <mxGeometry relative="1" as="geometry" />
        </mxCell>
        <mxCell id="NxGwlw9UBmdGhxkE0W0p-33" value="direccion" style="ellipse;whiteSpace=wrap;html=1;" parent="1" vertex="1">
          <mxGeometry x="897" y="609" width="80" height="40" as="geometry" />
        </mxCell>
        <mxCell id="NxGwlw9UBmdGhxkE0W0p-42" style="edgeStyle=orthogonalEdgeStyle;rounded=0;orthogonalLoop=1;jettySize=auto;html=1;exitX=0;exitY=0.5;exitDx=0;exitDy=0;entryX=1;entryY=0;entryDx=0;entryDy=0;" parent="1" source="NxGwlw9UBmdGhxkE0W0p-35" target="NxGwlw9UBmdGhxkE0W0p-33" edge="1">
          <mxGeometry relative="1" as="geometry" />
        </mxCell>
        <mxCell id="NxGwlw9UBmdGhxkE0W0p-35" value="&lt;font style=&quot;font-size: 6px;&quot;&gt;cp&lt;/font&gt;" style="ellipse;whiteSpace=wrap;html=1;" parent="1" vertex="1">
          <mxGeometry x="1017" y="589" width="40" height="20" as="geometry" />
        </mxCell>
        <mxCell id="NxGwlw9UBmdGhxkE0W0p-44" style="edgeStyle=orthogonalEdgeStyle;rounded=0;orthogonalLoop=1;jettySize=auto;html=1;exitX=0;exitY=0.5;exitDx=0;exitDy=0;entryX=1;entryY=0.5;entryDx=0;entryDy=0;" parent="1" source="NxGwlw9UBmdGhxkE0W0p-37" target="NxGwlw9UBmdGhxkE0W0p-33" edge="1">
          <mxGeometry relative="1" as="geometry" />
        </mxCell>
        <mxCell id="NxGwlw9UBmdGhxkE0W0p-37" value="&lt;font style=&quot;font-size: 6px;&quot;&gt;ciudad&lt;/font&gt;" style="ellipse;whiteSpace=wrap;html=1;" parent="1" vertex="1">
          <mxGeometry x="1017" y="609" width="40" height="20" as="geometry" />
        </mxCell>
        <mxCell id="NxGwlw9UBmdGhxkE0W0p-45" style="edgeStyle=orthogonalEdgeStyle;rounded=0;orthogonalLoop=1;jettySize=auto;html=1;exitX=0;exitY=0.5;exitDx=0;exitDy=0;" parent="1" source="NxGwlw9UBmdGhxkE0W0p-39" edge="1">
          <mxGeometry relative="1" as="geometry">
            <mxPoint x="977" y="629" as="targetPoint" />
          </mxGeometry>
        </mxCell>
        <mxCell id="NxGwlw9UBmdGhxkE0W0p-39" value="&lt;font style=&quot;font-size: 6px;&quot;&gt;calle&lt;/font&gt;" style="ellipse;whiteSpace=wrap;html=1;" parent="1" vertex="1">
          <mxGeometry x="1017" y="629" width="40" height="20" as="geometry" />
        </mxCell>
        <mxCell id="NxGwlw9UBmdGhxkE0W0p-43" style="edgeStyle=orthogonalEdgeStyle;rounded=0;orthogonalLoop=1;jettySize=auto;html=1;exitX=0;exitY=0.5;exitDx=0;exitDy=0;entryX=1;entryY=1;entryDx=0;entryDy=0;" parent="1" source="NxGwlw9UBmdGhxkE0W0p-41" target="NxGwlw9UBmdGhxkE0W0p-33" edge="1">
          <mxGeometry relative="1" as="geometry" />
        </mxCell>
        <mxCell id="NxGwlw9UBmdGhxkE0W0p-41" value="&lt;font style=&quot;font-size: 6px;&quot;&gt;numero&lt;/font&gt;" style="ellipse;whiteSpace=wrap;html=1;" parent="1" vertex="1">
          <mxGeometry x="1017" y="649" width="40" height="20" as="geometry" />
        </mxCell>
        <mxCell id="NxGwlw9UBmdGhxkE0W0p-66" style="edgeStyle=orthogonalEdgeStyle;rounded=0;orthogonalLoop=1;jettySize=auto;html=1;exitX=0.5;exitY=0;exitDx=0;exitDy=0;entryX=1;entryY=0.5;entryDx=0;entryDy=0;" parent="1" source="NxGwlw9UBmdGhxkE0W0p-50" target="NxGwlw9UBmdGhxkE0W0p-53" edge="1">
          <mxGeometry relative="1" as="geometry" />
        </mxCell>
        <mxCell id="NxGwlw9UBmdGhxkE0W0p-67" style="edgeStyle=orthogonalEdgeStyle;rounded=0;orthogonalLoop=1;jettySize=auto;html=1;exitX=0.5;exitY=1;exitDx=0;exitDy=0;entryX=1;entryY=0.5;entryDx=0;entryDy=0;" parent="1" source="NxGwlw9UBmdGhxkE0W0p-50" target="NxGwlw9UBmdGhxkE0W0p-52" edge="1">
          <mxGeometry relative="1" as="geometry" />
        </mxCell>
        <mxCell id="NxGwlw9UBmdGhxkE0W0p-50" value="d" style="ellipse;whiteSpace=wrap;html=1;aspect=fixed;" parent="1" vertex="1">
          <mxGeometry x="652" y="529" width="40" height="40" as="geometry" />
        </mxCell>
        <mxCell id="NxGwlw9UBmdGhxkE0W0p-52" value="Empleado" style="rounded=1;whiteSpace=wrap;html=1;" parent="1" vertex="1">
          <mxGeometry x="532" y="589" width="120" height="60" as="geometry" />
        </mxCell>
        <mxCell id="NxGwlw9UBmdGhxkE0W0p-86" style="edgeStyle=orthogonalEdgeStyle;rounded=0;orthogonalLoop=1;jettySize=auto;html=1;exitX=0;exitY=0.5;exitDx=0;exitDy=0;entryX=1;entryY=0.5;entryDx=0;entryDy=0;" parent="1" source="NxGwlw9UBmdGhxkE0W0p-53" target="NxGwlw9UBmdGhxkE0W0p-85" edge="1">
          <mxGeometry relative="1" as="geometry" />
        </mxCell>
        <mxCell id="NxGwlw9UBmdGhxkE0W0p-53" value="Cliente" style="rounded=1;whiteSpace=wrap;html=1;" parent="1" vertex="1">
          <mxGeometry x="532" y="449" width="120" height="60" as="geometry" />
        </mxCell>
        <mxCell id="NxGwlw9UBmdGhxkE0W0p-83" style="edgeStyle=orthogonalEdgeStyle;rounded=0;orthogonalLoop=1;jettySize=auto;html=1;exitX=0.5;exitY=1;exitDx=0;exitDy=0;entryX=0.5;entryY=0;entryDx=0;entryDy=0;" parent="1" source="NxGwlw9UBmdGhxkE0W0p-70" target="NxGwlw9UBmdGhxkE0W0p-82" edge="1">
          <mxGeometry relative="1" as="geometry" />
        </mxCell>
        <mxCell id="NxGwlw9UBmdGhxkE0W0p-70" value="Material" style="rounded=1;whiteSpace=wrap;html=1;" parent="1" vertex="1">
          <mxGeometry x="292" y="259" width="120" height="60" as="geometry" />
        </mxCell>
        <mxCell id="NxGwlw9UBmdGhxkE0W0p-80" style="edgeStyle=orthogonalEdgeStyle;rounded=0;orthogonalLoop=1;jettySize=auto;html=1;exitX=0.5;exitY=1;exitDx=0;exitDy=0;entryX=0.25;entryY=0;entryDx=0;entryDy=0;" parent="1" source="NxGwlw9UBmdGhxkE0W0p-77" target="NxGwlw9UBmdGhxkE0W0p-70" edge="1">
          <mxGeometry relative="1" as="geometry" />
        </mxCell>
        <mxCell id="NxGwlw9UBmdGhxkE0W0p-77" value="&lt;u&gt;&lt;font style=&quot;font-size: 10px;&quot;&gt;idMaterial&lt;/font&gt;&lt;/u&gt;" style="ellipse;whiteSpace=wrap;html=1;" parent="1" vertex="1">
          <mxGeometry x="272" y="180" width="80" height="40" as="geometry" />
        </mxCell>
        <mxCell id="NxGwlw9UBmdGhxkE0W0p-84" style="edgeStyle=orthogonalEdgeStyle;rounded=0;orthogonalLoop=1;jettySize=auto;html=1;exitX=0.5;exitY=0;exitDx=0;exitDy=0;entryX=0.5;entryY=1;entryDx=0;entryDy=0;" parent="1" source="NxGwlw9UBmdGhxkE0W0p-81" target="NxGwlw9UBmdGhxkE0W0p-82" edge="1">
          <mxGeometry relative="1" as="geometry" />
        </mxCell>
        <mxCell id="NxGwlw9UBmdGhxkE0W0p-81" value="Clase" style="rounded=1;whiteSpace=wrap;html=1;" parent="1" vertex="1">
          <mxGeometry x="292" y="519" width="120" height="60" as="geometry" />
        </mxCell>
        <mxCell id="NxGwlw9UBmdGhxkE0W0p-82" value="usa" style="rhombus;whiteSpace=wrap;html=1;" parent="1" vertex="1">
          <mxGeometry x="332" y="399" width="40" height="40" as="geometry" />
        </mxCell>
        <mxCell id="NxGwlw9UBmdGhxkE0W0p-87" style="edgeStyle=orthogonalEdgeStyle;rounded=0;orthogonalLoop=1;jettySize=auto;html=1;exitX=0;exitY=0.5;exitDx=0;exitDy=0;entryX=0.75;entryY=0;entryDx=0;entryDy=0;" parent="1" source="NxGwlw9UBmdGhxkE0W0p-85" target="NxGwlw9UBmdGhxkE0W0p-81" edge="1">
          <mxGeometry relative="1" as="geometry" />
        </mxCell>
        <mxCell id="NxGwlw9UBmdGhxkE0W0p-85" value="va" style="rhombus;whiteSpace=wrap;html=1;" parent="1" vertex="1">
          <mxGeometry x="432" y="459" width="40" height="40" as="geometry" />
        </mxCell>
        <mxCell id="xYislynmfCo3uwSs3nwc-1" style="edgeStyle=orthogonalEdgeStyle;rounded=0;orthogonalLoop=1;jettySize=auto;html=1;exitX=0.5;exitY=0;exitDx=0;exitDy=0;entryX=0.25;entryY=1;entryDx=0;entryDy=0;" parent="1" source="NxGwlw9UBmdGhxkE0W0p-93" target="NxGwlw9UBmdGhxkE0W0p-81" edge="1">
          <mxGeometry relative="1" as="geometry" />
        </mxCell>
        <mxCell id="NxGwlw9UBmdGhxkE0W0p-93" value="idEmpleado" style="ellipse;whiteSpace=wrap;html=1;" parent="1" vertex="1">
          <mxGeometry x="237" y="634" width="80" height="40" as="geometry" />
        </mxCell>
        <mxCell id="NxGwlw9UBmdGhxkE0W0p-98" value="N:M" style="text;html=1;align=center;verticalAlign=middle;whiteSpace=wrap;rounded=0;" parent="1" vertex="1">
          <mxGeometry x="422" y="499" width="60" height="30" as="geometry" />
        </mxCell>
        <mxCell id="NxGwlw9UBmdGhxkE0W0p-99" value="(0,n)" style="text;html=1;align=center;verticalAlign=middle;whiteSpace=wrap;rounded=0;" parent="1" vertex="1">
          <mxGeometry x="482" y="479" width="60" height="30" as="geometry" />
        </mxCell>
        <mxCell id="NxGwlw9UBmdGhxkE0W0p-100" value="(0,n)" style="text;html=1;align=center;verticalAlign=middle;whiteSpace=wrap;rounded=0;" parent="1" vertex="1">
          <mxGeometry x="372" y="489" width="60" height="30" as="geometry" />
        </mxCell>
        <mxCell id="NxGwlw9UBmdGhxkE0W0p-101" value="N:M" style="text;html=1;align=center;verticalAlign=middle;whiteSpace=wrap;rounded=0;" parent="1" vertex="1">
          <mxGeometry x="282" y="404" width="60" height="30" as="geometry" />
        </mxCell>
        <mxCell id="NxGwlw9UBmdGhxkE0W0p-102" value="(0,n)" style="text;html=1;align=center;verticalAlign=middle;whiteSpace=wrap;rounded=0;" parent="1" vertex="1">
          <mxGeometry x="302" y="319" width="60" height="30" as="geometry" />
        </mxCell>
        <mxCell id="NxGwlw9UBmdGhxkE0W0p-103" value="(0,n)" style="text;html=1;align=center;verticalAlign=middle;whiteSpace=wrap;rounded=0;" parent="1" vertex="1">
          <mxGeometry x="302" y="489" width="60" height="30" as="geometry" />
        </mxCell>
        <mxCell id="NxGwlw9UBmdGhxkE0W0p-108" style="edgeStyle=orthogonalEdgeStyle;rounded=0;orthogonalLoop=1;jettySize=auto;html=1;exitX=1;exitY=0.5;exitDx=0;exitDy=0;entryX=0;entryY=0.25;entryDx=0;entryDy=0;" parent="1" source="NxGwlw9UBmdGhxkE0W0p-104" target="NxGwlw9UBmdGhxkE0W0p-81" edge="1">
          <mxGeometry relative="1" as="geometry" />
        </mxCell>
        <mxCell id="NxGwlw9UBmdGhxkE0W0p-104" value="&lt;u&gt;idClase&lt;/u&gt;" style="ellipse;whiteSpace=wrap;html=1;" parent="1" vertex="1">
          <mxGeometry x="157" y="469" width="80" height="40" as="geometry" />
        </mxCell>
        <mxCell id="NxGwlw9UBmdGhxkE0W0p-110" style="edgeStyle=orthogonalEdgeStyle;rounded=0;orthogonalLoop=1;jettySize=auto;html=1;exitX=1;exitY=0.5;exitDx=0;exitDy=0;entryX=0;entryY=0.5;entryDx=0;entryDy=0;" parent="1" source="NxGwlw9UBmdGhxkE0W0p-105" target="NxGwlw9UBmdGhxkE0W0p-81" edge="1">
          <mxGeometry relative="1" as="geometry" />
        </mxCell>
        <mxCell id="NxGwlw9UBmdGhxkE0W0p-105" value="nombreClase" style="ellipse;whiteSpace=wrap;html=1;" parent="1" vertex="1">
          <mxGeometry x="117" y="509" width="80" height="40" as="geometry" />
        </mxCell>
        <mxCell id="NxGwlw9UBmdGhxkE0W0p-112" style="edgeStyle=orthogonalEdgeStyle;rounded=0;orthogonalLoop=1;jettySize=auto;html=1;exitX=1;exitY=0.5;exitDx=0;exitDy=0;entryX=0;entryY=0.5;entryDx=0;entryDy=0;" parent="1" source="NxGwlw9UBmdGhxkE0W0p-106" target="NxGwlw9UBmdGhxkE0W0p-81" edge="1">
          <mxGeometry relative="1" as="geometry" />
        </mxCell>
        <mxCell id="NxGwlw9UBmdGhxkE0W0p-106" value="fechaHora" style="ellipse;whiteSpace=wrap;html=1;" parent="1" vertex="1">
          <mxGeometry x="117" y="549" width="80" height="40" as="geometry" />
        </mxCell>
        <mxCell id="NxGwlw9UBmdGhxkE0W0p-109" style="edgeStyle=orthogonalEdgeStyle;rounded=0;orthogonalLoop=1;jettySize=auto;html=1;exitX=1;exitY=0.5;exitDx=0;exitDy=0;entryX=0;entryY=0.75;entryDx=0;entryDy=0;" parent="1" source="NxGwlw9UBmdGhxkE0W0p-107" target="NxGwlw9UBmdGhxkE0W0p-81" edge="1">
          <mxGeometry relative="1" as="geometry" />
        </mxCell>
        <mxCell id="NxGwlw9UBmdGhxkE0W0p-107" value="realizada" style="ellipse;whiteSpace=wrap;html=1;" parent="1" vertex="1">
          <mxGeometry x="157" y="589" width="80" height="40" as="geometry" />
        </mxCell>
        <mxCell id="7605KGGbJHUWiCEuBsS4-3" style="edgeStyle=orthogonalEdgeStyle;rounded=0;orthogonalLoop=1;jettySize=auto;html=1;exitX=0.5;exitY=1;exitDx=0;exitDy=0;entryX=0.75;entryY=0;entryDx=0;entryDy=0;" parent="1" source="7605KGGbJHUWiCEuBsS4-1" target="NxGwlw9UBmdGhxkE0W0p-70" edge="1">
          <mxGeometry relative="1" as="geometry" />
        </mxCell>
        <mxCell id="7605KGGbJHUWiCEuBsS4-1" value="nombreMaterial" style="ellipse;whiteSpace=wrap;html=1;" parent="1" vertex="1">
          <mxGeometry x="352" y="180" width="80" height="40" as="geometry" />
        </mxCell>
        <mxCell id="7605KGGbJHUWiCEuBsS4-9" style="edgeStyle=orthogonalEdgeStyle;rounded=0;orthogonalLoop=1;jettySize=auto;html=1;exitX=0;exitY=0.5;exitDx=0;exitDy=0;entryX=0.75;entryY=0;entryDx=0;entryDy=0;" parent="1" source="7605KGGbJHUWiCEuBsS4-4" target="NxGwlw9UBmdGhxkE0W0p-13" edge="1">
          <mxGeometry relative="1" as="geometry" />
        </mxCell>
        <mxCell id="7605KGGbJHUWiCEuBsS4-4" value="&lt;u&gt;id&lt;/u&gt;" style="ellipse;whiteSpace=wrap;html=1;" parent="1" vertex="1">
          <mxGeometry x="897" y="449" width="80" height="40" as="geometry" />
        </mxCell>
        <mxCell id="5MXQDkKtPRsm9jSQnSG3-3" style="edgeStyle=orthogonalEdgeStyle;rounded=0;orthogonalLoop=1;jettySize=auto;html=1;exitX=0.5;exitY=0;exitDx=0;exitDy=0;entryX=0.25;entryY=1;entryDx=0;entryDy=0;" edge="1" parent="1" source="7605KGGbJHUWiCEuBsS4-10" target="NxGwlw9UBmdGhxkE0W0p-52">
          <mxGeometry relative="1" as="geometry" />
        </mxCell>
        <mxCell id="7605KGGbJHUWiCEuBsS4-10" value="salario" style="ellipse;whiteSpace=wrap;html=1;" parent="1" vertex="1">
          <mxGeometry x="512" y="690" width="80" height="40" as="geometry" />
        </mxCell>
        <mxCell id="5MXQDkKtPRsm9jSQnSG3-4" style="edgeStyle=orthogonalEdgeStyle;rounded=0;orthogonalLoop=1;jettySize=auto;html=1;exitX=0.5;exitY=0;exitDx=0;exitDy=0;entryX=0.75;entryY=1;entryDx=0;entryDy=0;" edge="1" parent="1" source="5MXQDkKtPRsm9jSQnSG3-1" target="NxGwlw9UBmdGhxkE0W0p-52">
          <mxGeometry relative="1" as="geometry" />
        </mxCell>
        <mxCell id="5MXQDkKtPRsm9jSQnSG3-1" value="puesto" style="ellipse;whiteSpace=wrap;html=1;" vertex="1" parent="1">
          <mxGeometry x="592" y="690" width="80" height="40" as="geometry" />
        </mxCell>
        <mxCell id="5MXQDkKtPRsm9jSQnSG3-5" style="edgeStyle=orthogonalEdgeStyle;rounded=0;orthogonalLoop=1;jettySize=auto;html=1;exitX=0.5;exitY=1;exitDx=0;exitDy=0;entryX=0.5;entryY=0;entryDx=0;entryDy=0;" edge="1" parent="1" source="5MXQDkKtPRsm9jSQnSG3-2" target="NxGwlw9UBmdGhxkE0W0p-53">
          <mxGeometry relative="1" as="geometry" />
        </mxCell>
        <mxCell id="5MXQDkKtPRsm9jSQnSG3-2" value="fechaInscripcion" style="ellipse;whiteSpace=wrap;html=1;" vertex="1" parent="1">
          <mxGeometry x="552" y="364" width="80" height="40" as="geometry" />
        </mxCell>
      </root>
    </mxGraphModel>
  </diagram>
</mxfile>
